<?xml version="1.0" standalone="no"?>
<!DOCTYPE svg PUBLIC "-//W3C//DTD SVG 20010904//EN"
 "http://www.w3.org/TR/2001/REC-SVG-20010904/DTD/svg10.dtd">
<svg version="1.0" xmlns="http://www.w3.org/2000/svg"
 width="700.000000pt" height="700.000000pt" viewBox="0 0 700.000000 700.000000"
 preserveAspectRatio="xMidYMid meet">
<metadata>
Created by potrace 1.14, written by Peter Selinger 2001-2017
</metadata>
<g transform="translate(0.000000,700.000000) scale(0.100000,-0.100000)"
fill="#000000" stroke="none">
<path d="M876 6963 c-7 -45 -876 -6945 -876 -6956 0 -4 1377 -7 3059 -7 l3059
0 6 37 c7 45 876 6945 876 6956 0 4 -1377 7 -3059 7 l-3059 0 -6 -37z m3817
-726 c183 -48 310 -129 310 -196 0 -71 -60 -82 -126 -22 -102 93 -167 106
-527 105 -296 0 -398 -8 -688 -49 -606 -88 -1256 -249 -1832 -455 -239 -85
-237 -85 -268 -74 -22 8 -27 15 -27 44 l0 35 120 51 c455 194 1332 418 2050
524 401 59 516 69 710 66 155 -3 194 -7 278 -29z m-1433 -426 c0 -24 -84 -127
-447 -556 -247 -289 -449 -535 -451 -545 -4 -25 5 -25 160 0 194 31 366 49
597 62 l214 12 18 -23 c24 -29 24 -35 -3 -65 -22 -24 -30 -25 -213 -36 -199
-11 -381 -30 -550 -55 -160 -25 -318 -55 -347 -66 -16 -7 -65 -60 -121 -133
-340 -439 -508 -700 -613 -951 -50 -119 -67 -145 -96 -145 -28 0 -58 36 -58
70 0 16 14 64 31 107 81 205 247 477 493 807 69 93 126 175 126 183 0 7 -7 13
-15 13 -9 0 -121 -31 -249 -70 -243 -73 -284 -80 -310 -54 -20 19 -20 28 -2
63 14 26 34 33 338 115 178 49 340 95 361 103 29 12 64 47 144 147 240 294
544 652 781 918 82 93 122 130 145 136 43 12 67 -2 67 -37z m1535 -1712 c84
-26 167 -82 245 -166 80 -86 124 -158 161 -265 65 -191 61 -380 -10 -418 -33
-17 -58 -11 -84 19 -21 26 -24 41 -30 154 -10 197 -55 313 -164 419 -85 83
-196 124 -309 115 -332 -26 -859 -646 -1200 -1412 -181 -407 -232 -621 -221
-938 5 -164 23 -259 70 -369 43 -102 124 -187 227 -237 l75 -36 135 1 c160 0
218 16 445 121 77 35 152 67 168 70 33 7 67 -19 67 -52 0 -42 -41 -75 -179
-144 -319 -160 -521 -201 -713 -145 -237 70 -407 306 -464 645 -24 146 -15
384 20 534 103 438 334 941 637 1390 291 430 594 684 877 735 64 12 171 3 247
-21z"/>
</g>
</svg>
